<?xml version="1.0" encoding="utf-8"?>
<!DOCTYPE svg PUBLIC "-//W3C//DTD SVG 1.1//EN" "http://www.w3.org/Graphics/SVG/1.1/DTD/svg11.dtd">
<svg verion="1.1" xmlns="http://www.w3.org/2000/svg" xmlns:xlink="http://www.w3.org/1999/xlink" viewBox="0 0 195 38" width="195px" height="38px">
<path fill="#030505" d="M42.9,28.3c0.6,0,1.1-0.1,1.3-0.2c0.3-0.1,0.4-0.4,0.4-0.7c0-0.3-0.2-0.5-0.5-0.7c-0.3-0.2-0.9-0.4-1.5-0.7 c-0.5-0.2-1-0.4-1.5-0.6c-0.4-0.2-0.8-0.5-1.1-0.8c-0.3-0.3-0.5-0.7-0.7-1.1c-0.2-0.4-0.3-0.9-0.3-1.5c0-1.1,0.4-2,1.3-2.7 c0.8-0.7,2-1,3.5-1c0.7,0,1.4,0.1,2.1,0.2c0.7,0.1,1.2,0.3,1.6,0.4L47,21.6c-0.4-0.1-0.8-0.3-1.3-0.4c-0.5-0.1-1-0.2-1.6-0.2 c-1.1,0-1.6,0.3-1.6,0.9c0,0.1,0,0.3,0.1,0.4c0,0.1,0.1,0.2,0.3,0.3c0.1,0.1,0.3,0.2,0.6,0.3c0.2,0.1,0.5,0.2,0.9,0.4 c0.8,0.3,1.4,0.6,1.9,0.8c0.5,0.3,0.9,0.6,1.2,0.9c0.3,0.3,0.5,0.7,0.6,1c0.1,0.4,0.2,0.8,0.2,1.3c0,1.2-0.5,2.1-1.3,2.7 c-0.9,0.6-2.2,0.9-3.8,0.9c-1.1,0-2-0.1-2.7-0.3c-0.7-0.2-1.2-0.3-1.5-0.5l0.6-2.8c0.6,0.2,1.2,0.4,1.8,0.5 C41.7,28.2,42.3,28.3,42.9,28.3z M57.3,24.3c0-1.1-0.1-1.9-0.4-2.4c-0.3-0.5-0.8-0.7-1.5-0.7c-0.2,0-0.4,0-0.7,0 c-0.2,0-0.5,0.1-0.7,0.1v9.4h-3.4V19c0.3-0.1,0.6-0.2,1-0.2c0.4-0.1,0.8-0.2,1.2-0.2c0.4-0.1,0.9-0.1,1.4-0.2c0.5,0,0.9-0.1,1.4-0.1 c0.9,0,1.6,0.1,2.1,0.3c0.5,0.2,1,0.5,1.4,0.8c0.5-0.4,1.1-0.6,1.7-0.8c0.6-0.2,1.2-0.3,1.8-0.3c1,0,1.8,0.1,2.4,0.4 c0.6,0.3,1.1,0.7,1.5,1.1c0.4,0.5,0.6,1.1,0.8,1.8c0.1,0.7,0.2,1.4,0.2,2.3v6.9H64v-6.4c0-1.1-0.1-1.9-0.4-2.4 c-0.3-0.5-0.8-0.7-1.5-0.7c-0.2,0-0.4,0-0.8,0.1c-0.3,0.1-0.6,0.2-0.8,0.3c0.1,0.4,0.2,0.7,0.2,1.1c0,0.4,0,0.8,0,1.3v6.6h-3.4V24.3 z M74.9,18.3c1,0,1.9,0.1,2.5,0.3c0.7,0.2,1.2,0.6,1.6,1c0.4,0.4,0.7,1,0.9,1.6c0.2,0.6,0.3,1.3,0.3,2.1v7.2 c-0.5,0.1-1.2,0.2-2.1,0.4c-0.9,0.1-1.9,0.2-3.2,0.2c-0.8,0-1.5-0.1-2.1-0.2c-0.6-0.1-1.2-0.4-1.6-0.7c-0.5-0.3-0.8-0.7-1.1-1.2 c-0.2-0.5-0.4-1.1-0.4-1.9c0-0.7,0.1-1.3,0.4-1.8c0.3-0.5,0.7-0.9,1.1-1.2c0.5-0.3,1-0.5,1.6-0.6c0.6-0.1,1.3-0.2,1.9-0.2 c0.4,0,0.8,0,1.2,0.1c0.3,0,0.6,0.1,0.8,0.1v-0.3c0-0.6-0.2-1.1-0.5-1.4c-0.4-0.4-1-0.5-1.8-0.5c-0.6,0-1.2,0-1.7,0.1 c-0.6,0.1-1.1,0.2-1.5,0.4l-0.4-2.8c0.2-0.1,0.5-0.1,0.7-0.2c0.3-0.1,0.6-0.1,1-0.2c0.4-0.1,0.7-0.1,1.1-0.1 C74.1,18.3,74.5,18.3,74.9,18.3z M75.2,28.3c0.3,0,0.7,0,1,0c0.3,0,0.6,0,0.7-0.1v-2.6c-0.1,0-0.3-0.1-0.6-0.1c-0.3,0-0.5,0-0.8,0 c-0.3,0-0.6,0-0.9,0.1c-0.3,0-0.5,0.1-0.7,0.2c-0.2,0.1-0.4,0.3-0.5,0.4c-0.1,0.2-0.2,0.4-0.2,0.7c0,0.5,0.2,0.9,0.5,1.1 C74,28.2,74.5,28.3,75.2,28.3z M90.6,21.6c-0.3-0.1-0.7-0.2-1.1-0.2c-0.4-0.1-0.9-0.1-1.3-0.1c-0.2,0-0.5,0-0.8,0.1 c-0.3,0-0.5,0.1-0.7,0.1v9.3h-3.4V19.2c0.6-0.2,1.3-0.4,2.2-0.6c0.8-0.2,1.8-0.3,2.8-0.3c0.2,0,0.4,0,0.7,0c0.3,0,0.5,0.1,0.8,0.1 c0.3,0,0.5,0.1,0.8,0.1c0.3,0.1,0.5,0.1,0.7,0.2L90.6,21.6z M93,15.6l3.4-0.6v3.6h4.1v2.9h-4.1v4.3c0,0.7,0.1,1.3,0.4,1.7 c0.3,0.4,0.8,0.6,1.5,0.6c0.4,0,0.7,0,1.1-0.1c0.4-0.1,0.8-0.2,1.1-0.3l0.5,2.7c-0.4,0.2-0.9,0.3-1.4,0.4c-0.5,0.1-1.1,0.2-1.9,0.2 c-0.9,0-1.7-0.1-2.3-0.4c-0.6-0.3-1.1-0.6-1.5-1.1c-0.4-0.5-0.6-1-0.8-1.6c-0.1-0.6-0.2-1.4-0.2-2.1V15.6z M108.3,24.7 c0-0.9,0.1-1.7,0.4-2.5s0.7-1.5,1.2-2c0.5-0.6,1.2-1,2-1.4c0.8-0.3,1.6-0.5,2.6-0.5c0.6,0,1.2,0.1,1.8,0.2c0.5,0.1,1.1,0.3,1.6,0.5 l-0.7,2.7c-0.3-0.1-0.7-0.2-1.1-0.3c-0.4-0.1-0.8-0.1-1.3-0.1c-1,0-1.8,0.3-2.3,0.9c-0.5,0.6-0.7,1.5-0.7,2.5c0,1.1,0.2,1.9,0.7,2.5 c0.5,0.6,1.3,0.9,2.5,0.9c0.4,0,0.9,0,1.3-0.1c0.5-0.1,0.9-0.2,1.3-0.4l0.5,2.8c-0.4,0.2-0.9,0.3-1.5,0.4c-0.6,0.1-1.3,0.2-2,0.2 c-1.1,0-2.1-0.2-2.9-0.5c-0.8-0.3-1.5-0.8-2-1.4c-0.5-0.6-0.9-1.2-1.1-2C108.4,26.4,108.3,25.6,108.3,24.7z M124.1,15.1 c0,0.6-0.2,1.1-0.6,1.5c-0.4,0.4-0.9,0.5-1.4,0.5s-1-0.2-1.4-0.5c-0.4-0.4-0.6-0.9-0.6-1.5c0-0.6,0.2-1.1,0.6-1.5 c0.4-0.4,0.9-0.5,1.4-0.5s1,0.2,1.4,0.5C123.9,14,124.1,14.5,124.1,15.1z M123.8,30.7h-3.4V18.6h3.4V30.7z M126.9,15.6l3.4-0.6v3.6 h4.1v2.9h-4.1v4.3c0,0.7,0.1,1.3,0.4,1.7c0.3,0.4,0.8,0.6,1.5,0.6c0.4,0,0.7,0,1.1-0.1c0.4-0.1,0.8-0.2,1.1-0.3l0.5,2.7 c-0.4,0.2-0.9,0.3-1.4,0.4c-0.5,0.1-1.1,0.2-1.9,0.2c-0.9,0-1.7-0.1-2.3-0.4c-0.6-0.3-1.1-0.6-1.5-1.1c-0.4-0.5-0.6-1-0.8-1.6 c-0.1-0.6-0.2-1.4-0.2-2.1V15.6z M148.3,18.6c-0.7,2.3-1.4,4.5-2.2,6.6c-0.8,2-1.6,4-2.5,6c-0.3,0.7-0.6,1.3-1,1.8 c-0.3,0.5-0.7,0.9-1.1,1.2c-0.4,0.3-0.8,0.5-1.3,0.7c-0.5,0.1-1.1,0.2-1.7,0.2c-0.5,0-1,0-1.5-0.2c-0.5-0.1-0.8-0.2-1.1-0.3l0.6-2.7 c0.4,0.1,0.7,0.2,0.9,0.3c0.3,0,0.6,0.1,0.9,0.1c0.6,0,1.1-0.2,1.4-0.5c0.3-0.3,0.6-0.8,0.8-1.4c-0.8-1.5-1.6-3.3-2.4-5.2 c-0.8-1.9-1.5-4.1-2.2-6.4h3.6c0.2,0.6,0.3,1.2,0.5,1.9c0.2,0.7,0.4,1.4,0.7,2.1c0.2,0.7,0.5,1.4,0.7,2.1c0.2,0.7,0.5,1.3,0.7,1.8 c0.2-0.6,0.4-1.2,0.6-1.8c0.2-0.7,0.4-1.4,0.6-2.1c0.2-0.7,0.4-1.4,0.6-2.1c0.2-0.7,0.4-1.3,0.5-1.9H148.3z M155.7,30.7V13.4 l3.4-0.6v5.8c0.2-0.1,0.5-0.2,0.9-0.2c0.4-0.1,0.7-0.1,1-0.1c1,0,1.8,0.1,2.5,0.4c0.7,0.3,1.2,0.7,1.6,1.1c0.4,0.5,0.7,1.1,0.8,1.8 c0.2,0.7,0.2,1.4,0.2,2.3v6.9h-3.4v-6.4c0-1.1-0.1-1.9-0.4-2.4c-0.3-0.5-0.8-0.7-1.6-0.7c-0.3,0-0.6,0-0.9,0.1 c-0.3,0.1-0.5,0.1-0.7,0.2v9.2H155.7z M179.5,30.3c-0.6,0.2-1.3,0.3-2.3,0.5c-0.9,0.1-1.9,0.2-2.9,0.2c-1,0-1.9-0.1-2.6-0.4 c-0.7-0.3-1.2-0.7-1.6-1.2c-0.4-0.5-0.7-1.1-0.9-1.8c-0.2-0.7-0.3-1.5-0.3-2.3v-6.8h3.4v6.3c0,1.1,0.1,1.9,0.4,2.4 c0.3,0.5,0.8,0.7,1.6,0.7c0.2,0,0.5,0,0.8,0c0.3,0,0.5-0.1,0.7-0.1v-9.4h3.4V30.3z M194,24.7c0,1-0.1,1.8-0.4,2.6 c-0.3,0.8-0.7,1.5-1.2,2c-0.5,0.6-1.2,1-2,1.3c-0.8,0.3-1.7,0.5-2.7,0.5c-0.4,0-0.9,0-1.3-0.1c-0.5,0-0.9-0.1-1.3-0.1 c-0.4-0.1-0.9-0.1-1.3-0.2c-0.4-0.1-0.8-0.2-1.1-0.3v-17l3.4-0.6v6c0.4-0.2,0.8-0.3,1.2-0.4c0.4-0.1,0.9-0.1,1.3-0.1 c0.9,0,1.6,0.1,2.3,0.5c0.7,0.3,1.2,0.7,1.7,1.3c0.4,0.6,0.8,1.2,1,2C193.9,22.8,194,23.7,194,24.7z M190.5,24.6 c0-2.2-0.8-3.3-2.4-3.3c-0.4,0-0.7,0-1,0.1c-0.3,0.1-0.6,0.2-0.8,0.3V28c0.2,0,0.4,0.1,0.6,0.1c0.3,0,0.5,0,0.9,0 c0.9,0,1.6-0.3,2.1-1C190.3,26.5,190.5,25.6,190.5,24.6z"/>
<path fill="#dd2a29" d="M42.3,3.4c1.7,2.4,1.1,5.7-1.3,7.3c-1.1,0.8-2.3,1.1-3.5,0.9l0,0c-1.9-0.2-3.7,0.3-5.3,1.4 c-2.5,1.7-3.6,4.7-3.3,7.8c0.6,5-1.4,10.2-5.8,13.3c-6.3,4.5-15.1,3-19.6-3.3c-4.5-6.3-3-15.1,3.3-19.6c4.4-3.1,10-3.3,14.5-1.1 c2.8,1.3,6,1.3,8.5-0.5c1.5-1.1,2.6-2.7,3-4.5c0,0,0,0,0,0c0.3-1.2,1-2.3,2.1-3C37.3,0.5,40.6,1.1,42.3,3.4z"/>
<path fill="#ffffff" d="M23.1,20.4v4.7h-5.6v5.6h-4.7v-5.6H7.3v-4.7h5.6v-5.6h4.7v5.6H23.1z"/>
</svg>